HIERARCHY
ROOT Hips
{
    OFFSET 0.000000 0.000000 0.000000
    CHANNELS 6 Xposition Yposition Zposition Zrotation Yrotation Xrotation
    JOINT Chest
    {
        OFFSET 0.000000 1.634758 -0.000000
        CHANNELS 3 Zrotation Yrotation Xrotation
        JOINT Chest2
        {
            OFFSET 0.000000 2.197341 0.000000
            CHANNELS 3 Zrotation Yrotation Xrotation
            JOINT Neck
            {
                OFFSET 0.000000 0.961544 0.000000
                CHANNELS 3 Zrotation Yrotation Xrotation
                JOINT Head
                {
                    OFFSET 0.000000 0.632542 -0.032565
                    CHANNELS 3 Zrotation Yrotation Xrotation
                    End Site
                    {
                        OFFSET -0.000001 0.439502 2.922845
                    }
                }
            }
            JOINT LeftCollar
            {
                OFFSET 0.167536 0.778237 -0.168280
                CHANNELS 3 Zrotation Yrotation Xrotation
                JOINT LeftShoulder
                {
                    OFFSET 0.831514 -0.002900 0.006458
                    CHANNELS 3 Zrotation Yrotation Xrotation
                    JOINT LeftElbow
                    {
                        OFFSET 2.272872 -0.026639 0.059314
                        CHANNELS 3 Zrotation Yrotation Xrotation
                        JOINT LeftWrist
                        {
                            OFFSET 2.081982 -0.024402 0.054333
                            CHANNELS 3 Zrotation Yrotation Xrotation
                            JOINT LeftHandThumb1
                            {
                                OFFSET 0.218903 -0.128645 0.283837
                                CHANNELS 3 Zrotation Yrotation Xrotation
                                JOINT LeftHandThumb2
                                {
                                    OFFSET 0.137157 -0.025101 0.077902
                                    CHANNELS 3 Zrotation Yrotation Xrotation
                                    JOINT LeftHandThumb3
                                    {
                                        OFFSET 0.165861 -0.067014 0.039226
                                        CHANNELS 3 Zrotation Yrotation Xrotation
                                        End Site
                                        {
                                            OFFSET 0.241157 -0.045065 0.107930
                                        }
                                    }
                                }
                            }
                            JOINT LeftHandFore1
                            {
                                OFFSET 0.767340 -0.016076 0.196678
                                CHANNELS 3 Zrotation Yrotation Xrotation
                                JOINT LeftHandFore2
                                {
                                    OFFSET 0.215173 -0.024035 0.010864
                                    CHANNELS 3 Zrotation Yrotation Xrotation
                                    JOINT LeftHandFore3
                                    {
                                        OFFSET 0.127998 -0.018363 0.006493
                                        CHANNELS 3 Zrotation Yrotation Xrotation
                                        End Site
                                        {
                                            OFFSET 0.191872 -0.022849 0.005461
                                        }
                                    }
                                }
                            }
                            JOINT LeftHandMiddle1
                            {
                                OFFSET 0.709887 -0.008320 0.018526
                                CHANNELS 3 Zrotation Yrotation Xrotation
                                JOINT LeftHandMiddle2
                                {
                                    OFFSET 0.243305 -0.028680 0.006624
                                    CHANNELS 3 Zrotation Yrotation Xrotation
                                    JOINT LeftHandMiddle3
                                    {
                                        OFFSET 0.145223 -0.016669 0.003951
                                        CHANNELS 3 Zrotation Yrotation Xrotation
                                        End Site
                                        {
                                            OFFSET 0.233621 -0.031666 0.006995
                                        }
                                    }
                                }
                            }
                            JOINT LeftHandRing1
                            {
                                OFFSET 0.743817 -0.005823 -0.153668
                                CHANNELS 3 Zrotation Yrotation Xrotation
                                JOINT LeftHandRing2
                                {
                                    OFFSET 0.349394 -0.050632 -0.009675
                                    CHANNELS 3 Zrotation Yrotation Xrotation
                                    JOINT LeftHandRing3
                                    {
                                        OFFSET 0.134332 -0.023631 0.001421
                                        CHANNELS 3 Zrotation Yrotation Xrotation
                                        End Site
                                        {
                                            OFFSET 0.116893 -0.027460 0.001278
                                        }
                                    }
                                }
                            }
                            JOINT LeftHandLittle1
                            {
                                OFFSET 0.689408 -0.053302 -0.308304
                                CHANNELS 3 Zrotation Yrotation Xrotation
                                JOINT LeftHandLittle2
                                {
                                    OFFSET 0.193251 -0.018757 -0.018874
                                    CHANNELS 3 Zrotation Yrotation Xrotation
                                    JOINT LeftHandLittle3
                                    {
                                        OFFSET 0.116994 -0.025997 -0.011519
                                        CHANNELS 3 Zrotation Yrotation Xrotation
                                        End Site
                                        {
                                            OFFSET 0.189726 -0.012367 -0.011818
                                        }
                                    }
                                }
                            }
                        }
                    }
                }
            }
            JOINT RightCollar
            {
                OFFSET -0.167536 0.778237 -0.168280
                CHANNELS 3 Zrotation Yrotation Xrotation
                JOINT RightShoulder
                {
                    OFFSET -0.831514 -0.002900 0.006457
                    CHANNELS 3 Zrotation Yrotation Xrotation
                    JOINT RightElbow
                    {
                        OFFSET -2.272872 -0.026639 0.059313
                        CHANNELS 3 Zrotation Yrotation Xrotation
                        JOINT RightWrist
                        {
                            OFFSET -2.081982 -0.024402 0.054331
                            CHANNELS 3 Zrotation Yrotation Xrotation
                            JOINT RightHandThumb1
                            {
                                OFFSET -0.218911 -0.128571 0.283837
                                CHANNELS 3 Zrotation Yrotation Xrotation
                                JOINT RightHandThumb2
                                {
                                    OFFSET -0.137157 -0.025101 0.077902
                                    CHANNELS 3 Zrotation Yrotation Xrotation
                                    JOINT RightHandThumb3
                                    {
                                        OFFSET -0.165861 -0.067014 0.039226
                                        CHANNELS 3 Zrotation Yrotation Xrotation
                                        End Site
                                        {
                                            OFFSET -0.229436 -0.065997 0.121819
                                        }
                                    }
                                }
                            }
                            JOINT RightHandFore1
                            {
                                OFFSET -0.767344 -0.015991 0.196679
                                CHANNELS 3 Zrotation Yrotation Xrotation
                                JOINT RightHandFore2
                                {
                                    OFFSET -0.215182 -0.023988 0.010864
                                    CHANNELS 3 Zrotation Yrotation Xrotation
                                    JOINT RightHandFore3
                                    {
                                        OFFSET -0.127999 -0.018333 0.006493
                                        CHANNELS 3 Zrotation Yrotation Xrotation
                                        End Site
                                        {
                                            OFFSET -0.191454 -0.022769 0.013914
                                        }
                                    }
                                }
                            }
                            JOINT RightHandMiddle1
                            {
                                OFFSET -0.709887 -0.008302 0.018525
                                CHANNELS 3 Zrotation Yrotation Xrotation
                                JOINT RightHandMiddle2
                                {
                                    OFFSET -0.243299 -0.028703 0.006624
                                    CHANNELS 3 Zrotation Yrotation Xrotation
                                    JOINT RightHandMiddle3
                                    {
                                        OFFSET -0.145226 -0.016685 0.003951
                                        CHANNELS 3 Zrotation Yrotation Xrotation
                                        End Site
                                        {
                                            OFFSET -0.233653 -0.031672 0.005780
                                        }
                                    }
                                }
                            }
                            JOINT RightHandRing1
                            {
                                OFFSET -0.743819 -0.005785 -0.153669
                                CHANNELS 3 Zrotation Yrotation Xrotation
                                JOINT RightHandRing2
                                {
                                    OFFSET -0.349398 -0.050607 -0.009675
                                    CHANNELS 3 Zrotation Yrotation Xrotation
                                    JOINT RightHandRing3
                                    {
                                        OFFSET -0.134041 -0.023657 -0.008853
                                        CHANNELS 3 Zrotation Yrotation Xrotation
                                        End Site
                                        {
                                            OFFSET -0.116640 -0.027483 -0.007747
                                        }
                                    }
                                }
                            }
                            JOINT RightHandLittle1
                            {
                                OFFSET -0.689403 -0.053298 -0.308303
                                CHANNELS 3 Zrotation Yrotation Xrotation
                                JOINT RightHandLittle2
                                {
                                    OFFSET -0.193254 -0.018751 -0.018875
                                    CHANNELS 3 Zrotation Yrotation Xrotation
                                    JOINT RightHandLittle3
                                    {
                                        OFFSET -0.116992 -0.025993 -0.011520
                                        CHANNELS 3 Zrotation Yrotation Xrotation
                                        End Site
                                        {
                                            OFFSET -0.188440 -0.012318 -0.025042
                                        }
                                    }
                                }
                            }
                        }
                    }
                }
            }
        }
    }
    JOINT LeftHip
    {
        OFFSET 0.685143 0.673822 -0.044491
        CHANNELS 3 Zrotation Yrotation Xrotation
        JOINT LeftKnee
        {
            OFFSET 0.085364 -3.750208 0.017676
            CHANNELS 3 Zrotation Yrotation Xrotation
            JOINT LeftAnkle
            {
                OFFSET 0.094583 -4.155206 0.019585
                CHANNELS 3 Zrotation Yrotation Xrotation
                JOINT LeftToe
                {
                    OFFSET -0.000000 -0.395925 0.621478
                    CHANNELS 3 Zrotation Yrotation Xrotation
                    End Site
                    {
                        OFFSET -0.000000 -0.077878 0.321152
                    }
                }
            }
        }
    }
    JOINT RightHip
    {
        OFFSET -0.685143 0.673822 -0.044492
        CHANNELS 3 Zrotation Yrotation Xrotation
        JOINT RightKnee
        {
            OFFSET -0.085364 -3.750208 0.017677
            CHANNELS 3 Zrotation Yrotation Xrotation
            JOINT RightAnkle
            {
                OFFSET -0.094583 -4.155206 0.019585
                CHANNELS 3 Zrotation Yrotation Xrotation
                JOINT RightToe
                {
                    OFFSET -0.000000 -0.395925 0.621478
                    CHANNELS 3 Zrotation Yrotation Xrotation
                    End Site
                    {
                        OFFSET -0.000000 -0.077878 0.321152
                    }
                }
            }
        }
    }
}
MOTION
Frames: 4
Frame Time: 0.033333
0.009518 8.521564 1.069752 -0.000015 -1.054681 -0.000001 0.000023 1.054625 8.460320 0.010416 -0.163863 -3.645273 0.000001 0.164202 2.535794 0.000002 0.000011 6.989235 -8.663913 -2.275048 -0.033260 -40.864658 27.535902 6.323212 5.255871 -83.519928 -5.892898 1.427961 -1.107070 -8.273070 -0.000002 0.000003 -0.000001 0.000001 0.000003 -0.000004 0.000001 -0.000000 0.000003 0.000003 0.000002 -0.000001 0.000001 0.000003 -0.000002 -0.000002 0.000002 0.000001 0.000004 -0.000000 0.000002 0.000002 -0.000003 -0.000002 0.000001 -0.000000 0.000000 0.000003 -0.000003 0.000001 0.000001 0.000002 0.000000 0.000001 -0.000000 0.000001 -0.000000 0.000005 -0.000001 0.000002 -0.000000 0.000001 0.000000 -0.000000 0.000000 8.718664 2.753983 0.015861 40.826412 -26.377048 6.289469 -4.278502 82.237305 -4.907996 -1.481210 1.125705 -8.459950 -0.000002 0.000005 -0.000001 0.000006 -0.000003 0.000001 -0.000004 -0.000005 0.000001 0.000001 -0.000002 0.000001 -0.000002 0.000003 0.000000 -0.000003 0.000003 0.000004 -0.000001 0.000002 0.000003 -0.000001 -0.000002 0.000002 0.000001 -0.000002 -0.000003 0.000001 -0.000000 -0.000002 -0.000002 -0.000000 0.000002 0.000006 -0.000003 0.000001 0.000006 -0.000005 -0.000002 -0.000001 0.000002 0.000005 -0.000003 0.000007 -0.000004 11.740303 -0.594806 4.509054 0.007578 0.140372 6.178796 -0.286572 -1.531932 -10.775154 0.000000 -0.000002 0.000001 -9.657421 0.434737 3.074510 -0.009864 -0.160128 7.052504 1.359115 3.385955 -12.159021 0.000000 0.000002 0.000000
0.009510 8.521569 1.069711 -0.000015 -1.054681 -0.000001 0.000023 1.054625 8.461010 0.010414 -0.163863 -3.644578 0.000001 0.164211 2.535310 0.000001 0.000028 6.988333 -8.663845 -2.275248 -0.033260 -40.864338 27.534885 6.323256 5.255584 -83.519661 -5.892668 1.427968 -1.107405 -8.273088 -0.000008 0.000009 -0.000004 0.000001 0.000003 -0.000004 -0.000000 0.000005 0.000003 0.000002 -0.000007 0.000004 -0.000000 -0.000003 -0.000001 -0.000002 0.000007 0.000002 0.000002 -0.000002 0.000006 0.000001 -0.000000 -0.000001 -0.000003 -0.000000 -0.000001 -0.000001 -0.000009 0.000007 0.000001 -0.000003 0.000001 -0.000000 -0.000002 0.000001 -0.000003 0.000007 0.000007 0.000004 -0.000005 0.000000 -0.000002 0.000002 -0.000002 8.718592 2.754177 0.015861 40.825092 -26.375702 6.290147 -4.277841 82.236145 -4.907241 -1.481223 1.126599 -8.459492 -0.000001 0.000015 0.000002 0.000004 -0.000003 0.000002 -0.000001 -0.000002 0.000004 0.000003 0.000007 0.000013 0.000002 -0.000005 -0.000001 0.000000 -0.000002 -0.000002 0.000001 0.000007 0.000004 -0.000000 -0.000007 0.000000 -0.000004 0.000007 0.000000 0.000008 -0.000003 0.000013 -0.000001 -0.000003 -0.000002 0.000001 -0.000000 0.000002 0.000006 0.000007 0.000014 0.000002 -0.000003 -0.000003 -0.000001 0.000002 0.000000 11.740311 -0.595197 4.510168 0.007573 0.140318 6.176388 -0.286690 -1.531489 -10.773424 -0.000001 -0.000006 0.000003 -9.657361 0.434643 3.073513 -0.009866 -0.160143 7.053208 1.359056 3.386047 -12.158340 0.000001 0.000003 0.000002
0.009487 8.521585 1.069588 -0.000015 -1.054681 -0.000001 0.000023 1.054625 8.463063 0.010408 -0.163864 -3.642491 0.000001 0.164238 2.533875 -0.000001 0.000079 6.985632 -8.663644 -2.275837 -0.033262 -40.863323 27.531836 6.323478 5.254904 -83.518883 -5.891949 1.427966 -1.108390 -8.273129 -0.000004 -0.000005 0.000003 -0.000001 0.000002 -0.000002 0.000002 -0.000000 0.000004 0.000005 -0.000015 0.000005 -0.000001 0.000003 -0.000001 -0.000000 0.000005 -0.000002 0.000007 -0.000014 0.000006 -0.000002 0.000002 -0.000001 0.000001 -0.000002 0.000002 0.000005 -0.000012 0.000009 -0.000004 -0.000002 0.000001 0.000002 -0.000007 0.000000 0.000004 -0.000002 -0.000000 0.000002 0.000002 0.000003 -0.000004 0.000002 0.000000 8.718327 2.754754 0.015858 40.821228 -26.371626 6.292162 -4.275551 82.232582 -4.904967 -1.481262 1.129269 -8.458135 0.000003 0.000003 -0.000002 0.000004 -0.000007 0.000004 -0.000001 -0.000005 -0.000002 0.000003 -0.000003 0.000005 -0.000004 0.000005 -0.000001 0.000001 0.000007 -0.000002 0.000004 -0.000000 0.000004 -0.000003 -0.000000 -0.000002 -0.000000 0.000003 0.000000 0.000006 -0.000005 0.000012 0.000001 0.000003 -0.000003 0.000001 -0.000000 -0.000003 0.000005 -0.000003 0.000002 0.000001 -0.000002 0.000001 0.000001 -0.000000 0.000000 11.740330 -0.596393 4.512672 0.007560 0.140191 6.170770 -0.287019 -1.530174 -10.769007 0.000000 -0.000002 0.000002 -9.657176 0.434344 3.070905 -0.009870 -0.160175 7.054613 1.358886 3.386312 -12.155970 -0.000001 -0.000005 -0.000001
0.009450 8.521610 1.069385 -0.000015 -1.054681 -0.000001 0.000023 1.054625 8.466461 0.010398 -0.163866 -3.639026 0.000001 0.164284 2.531490 -0.000006 0.000162 6.981168 -8.663363 -2.276831 -0.033265 -40.861599 27.526814 6.323829 5.253721 -83.517616 -5.890764 1.427967 -1.110016 -8.273185 -0.000008 0.000003 0.000003 -0.000001 -0.000000 -0.000005 -0.000000 0.000002 0.000004 0.000001 -0.000003 0.000006 -0.000001 -0.000002 -0.000001 -0.000001 -0.000007 -0.000001 -0.000001 -0.000002 0.000004 0.000001 -0.000005 -0.000004 -0.000003 0.000002 0.000002 0.000003 -0.000014 0.000006 0.000000 -0.000002 -0.000000 0.000000 -0.000002 -0.000001 0.000002 0.000010 0.000001 -0.000000 0.000002 0.000003 0.000002 -0.000002 -0.000007 8.717918 2.755719 0.015855 40.814812 -26.364872 6.295532 -4.271845 82.226707 -4.901224 -1.481336 1.133684 -8.455884 0.000004 -0.000009 0.000001 0.000004 -0.000000 0.000004 -0.000000 -0.000003 -0.000002 0.000009 -0.000003 0.000005 0.000001 -0.000002 0.000000 -0.000002 -0.000000 0.000002 0.000010 -0.000010 0.000009 -0.000001 0.000003 0.000000 -0.000004 0.000010 -0.000002 0.000010 -0.000010 0.000010 0.000000 -0.000000 0.000001 -0.000002 0.000003 -0.000001 0.000014 -0.000009 -0.000000 0.000004 -0.000002 0.000004 0.000002 -0.000002 -0.000001 11.740355 -0.598360 4.516940 0.007536 0.139975 6.161235 -0.287561 -1.528004 -10.761571 -0.000000 -0.000003 -0.000003 -9.656878 0.433868 3.066120 -0.009878 -0.160248 7.057826 1.358587 3.386762 -12.152469 -0.000002 -0.000002 0.000007
